<svg width="14" height="10" viewBox="0 0 14 10" fill="none" xmlns="http://www.w3.org/2000/svg">
<path d="M0.0625002 5.00041L0.3375 5.28791L4.7 9.63791C4.79687 9.75666 4.95156 9.81135 5.10156 9.77697C5.25 9.7426 5.36719 9.62541 5.40156 9.47697C5.43594 9.32697 5.38125 9.17228 5.2625 9.07541L1.5875 5.40041L13.4 5.40041C13.5437 5.40197 13.6781 5.32697 13.7516 5.20197C13.8234 5.07697 13.8234 4.92384 13.7516 4.79884C13.6781 4.67384 13.5437 4.59885 13.4 4.60041L1.5875 4.60041L5.2625 0.925407C5.38125 0.828531 5.43594 0.673844 5.40156 0.523844C5.36719 0.375406 5.25 0.258218 5.10156 0.223844C4.95156 0.189469 4.79687 0.244156 4.7 0.362907L0.3375 4.71291L0.0625002 5.00041Z" fill="black" fill-opacity="0.5"/>
</svg>
