<svg width="19" height="18" viewBox="0 0 52 60" fill="none" xmlns="http://www.w3.org/2000/svg">
<path d="M25.9999 0C19.5183 0 14.2486 5.49107 14.2486 12.2448V14.6939H4.95769L0 60H52L47.0423 14.6939H40.1017V22.0408C40.1017 24.0689 38.5226 25.7142 36.5763 25.7142C36.3146 25.7142 36.0484 25.6952 35.805 25.6377C34.2306 25.2695 33.0508 23.7963 33.0508 22.0408C33.0508 20.448 34.0378 19.104 35.4011 18.5969V22.0408C35.4011 22.7153 35.9244 23.2654 36.5763 23.2654C37.2281 23.2654 37.7514 22.7153 37.7514 22.0408V12.2448C37.7514 5.49107 32.4817 0 25.9999 0ZM25.9999 2.44898C31.1826 2.44898 35.4011 6.84471 35.4011 12.2448V14.6939H18.9491V22.0408C18.9491 24.0689 17.3701 25.7142 15.4237 25.7142C15.162 25.7142 14.8958 25.6952 14.6525 25.6377C13.0735 25.2695 11.8983 23.7963 11.8983 22.0408C11.8983 20.448 12.8852 19.104 14.2486 18.5969V22.0408C14.2486 22.7153 14.7765 23.2654 15.4237 23.2654C16.071 23.2654 16.5989 22.7153 16.5989 22.0408V12.2448C16.5989 6.84471 20.8174 2.44898 25.9999 2.44898Z" fill="#D699C4"/>
</svg>
