<svg width="26" height="26" viewBox="0 0 26 26" fill="none" xmlns="http://www.w3.org/2000/svg">
<path d="M12.6001 0C5.64901 0 0 5.69818 0 12.7098C0 19.0759 4.65568 24.3431 10.7186 25.2638L11.3763 25.3631V15.3479H8.39857V13.3146H11.3763V10.6133C11.3763 8.95235 11.7701 7.85559 12.4256 7.16955C13.0811 6.48351 14.0476 6.13598 15.3944 6.13598C16.4705 6.13598 16.8889 6.20143 17.2871 6.25107V7.91427H15.8866C15.0924 7.91427 14.4391 8.36335 14.099 8.95912C13.7612 9.55489 13.6561 10.268 13.6561 10.9924V13.3123H17.1618L16.8508 15.3479H13.6561V25.3789L14.3049 25.2909C20.455 24.4491 25.2002 19.1369 25.2002 12.7098C25.2002 5.69818 19.5512 0 12.6001 0ZM12.6001 1.15543C18.9337 1.15543 24.0547 6.32103 24.0547 12.7098C24.0547 18.3312 20.0657 22.9529 14.8015 23.9955V16.5033H17.833L18.4974 12.1569H14.8015V10.9924C14.8015 10.3921 14.9111 9.85503 15.0924 9.53232C15.2758 9.21187 15.4526 9.0697 15.8866 9.0697H18.4326V5.20396L17.9359 5.13626C17.5936 5.09113 16.8083 4.98055 15.3944 4.98055C13.8462 4.98055 12.5173 5.40707 11.6 6.36842C10.6828 7.32978 10.2286 8.76504 10.2286 10.6133V12.1591H7.2531V16.5033H10.2286V23.9572C5.04943 22.8514 1.14546 18.2703 1.14546 12.7098C1.14546 6.32103 6.26649 1.15543 12.6001 1.15543Z" fill="black"/>
</svg>
