<svg width="1.125rem" height="1.125rem" viewBox="0 0 24 24" fill="none" xmlns="http://www.w3.org/2000/svg">
<path d="M14.0437 0C13.7132 0.0304686 13.4695 0.325781 13.4999 0.65625C13.5304 0.986719 13.8257 1.23047 14.1562 1.2H21.9562L1.19994 21.9562V14.1562C1.20463 13.9711 1.12259 13.7953 0.979626 13.6781C0.839001 13.5609 0.649157 13.5164 0.468688 13.5562C0.189782 13.6195 -0.00709306 13.8703 -6.16608e-05 14.1562V24H9.84369C10.0593 24.0023 10.2609 23.8898 10.371 23.7023C10.4788 23.5148 10.4788 23.2852 10.371 23.0977C10.2609 22.9102 10.0593 22.7977 9.84369 22.8H2.04369L22.7999 2.04375V9.84375C22.7976 10.0594 22.9101 10.2609 23.0976 10.3711C23.2851 10.4789 23.5148 10.4789 23.7023 10.3711C23.8898 10.2609 24.0023 10.0594 23.9999 9.84375V0H14.1562C14.1374 0 14.1187 0 14.0999 0C14.0812 0 14.0624 0 14.0437 0Z" fill="black"/>
</svg>
