<svg width="1.5625rem" height="1.5625rem" viewBox="0 0 72 60" fill="none" xmlns="http://www.w3.org/2000/svg">
<path d="M20.3478 0C9.1284 0 0 8.68023 0 19.3488C0 41.3198 26.1318 52.1628 35.0217 59.2093L36 60L36.9783 59.2093C45.8682 52.1628 72 41.3198 72 19.3488C72 8.68023 62.8716 0 51.6522 0C45.3057 0 39.7296 2.86627 36 7.20931C32.2704 2.86627 26.6943 0 20.3478 0ZM20.3478 2.97675C26.3518 2.97675 31.5978 5.90697 34.6794 10.3256L36 12.186L37.3206 10.3256C40.4022 5.90697 45.6481 2.97675 51.6522 2.97675C61.1779 2.97675 68.8695 10.2907 68.8695 19.3488C68.8695 38.5465 46.3206 48.4826 36 56.2326C25.6794 48.4826 3.13044 38.5465 3.13044 19.3488C3.13044 10.2907 10.822 2.97675 20.3478 2.97675Z" fill="black"/>
</svg>
