<svg width="1.125rem" height="1.125rem" viewBox="0 0 30 16" fill="none" xmlns="http://www.w3.org/2000/svg">
<path d="M15 0.200012C7.00073 0.200012 0.749951 7.60626 0.749951 7.60626C0.553076 7.83126 0.553076 8.16876 0.749951 8.39376C0.749951 8.39376 7.00073 15.8 15 15.8C22.9992 15.8 29.25 8.39376 29.25 8.39376C29.4468 8.16876 29.4468 7.83126 29.25 7.60626C29.25 7.60626 22.9992 0.200012 15 0.200012ZM15 1.40001C16.5773 1.40001 18.0843 1.72579 19.4812 2.22501C20.4187 3.28439 21 4.66954 21 6.20001C21 9.5211 18.321 12.2 15 12.2C11.6789 12.2 8.99995 9.5211 8.99995 6.20001C8.99995 4.66954 9.56245 3.28439 10.5 2.22501C11.9015 1.72345 13.4179 1.40001 15 1.40001ZM8.51245 3.10626C8.06245 4.04376 7.79995 5.09376 7.79995 6.20001C7.79995 10.1703 11.0296 13.4 15 13.4C18.9703 13.4 22.1999 10.1703 22.1999 6.20001C22.1999 5.09845 21.9492 4.04376 21.5062 3.10626C24.8953 4.82892 27.3328 7.32736 27.9562 8.00001C26.9812 9.0547 21.5835 14.6 15 14.6C8.41636 14.6 3.0187 9.0547 2.0437 8.00001C2.66714 7.32501 5.11636 4.82892 8.51245 3.10626ZM15 3.20001C13.3429 3.20001 12 4.54298 12 6.20001C12 7.85704 13.3429 9.20001 15 9.20001C16.657 9.20001 18 7.85704 18 6.20001C18 4.54298 16.657 3.20001 15 3.20001Z" fill="black"/>
</svg>
