<svg version="1.0" xmlns="http://www.w3.org/2000/svg"
 width="42.000000pt" height="57.000000pt" viewBox="0 0 42.000000 57.000000"
 preserveAspectRatio="xMidYMid meet">

<g transform="translate(0.000000,57.000000) scale(0.100000,-0.100000)"
fill="#000000" stroke="none">
<path d="M145 558 c-106 -37 -165 -153 -132 -261 16 -49 124 -219 173 -271
l28 -29 23 29 c100 120 170 241 179 307 21 149 -130 274 -271 225z m47 -95
c17 -15 19 -15 37 1 18 16 22 16 50 2 39 -20 61 -63 61 -117 0 -35 -6 -48 -39
-80 -35 -35 -44 -39 -91 -39 -46 0 -56 4 -85 33 -60 60 -59 134 1 186 40 36
42 36 66 14z"/>
<path d="M169 427 c-46 -35 -50 -88 -10 -128 43 -43 91 -36 119 18 39 73 -45
159 -109 110z"/>
</g>
</svg>
