<?xml version="1.0" encoding="utf-8"?><svg xmlns="http://www.w3.org/2000/svg" xmlns:xlink="http://www.w3.org/1999/xlink"><symbol viewBox="0 0 30 30" id="arrow-left" xmlns="http://www.w3.org/2000/svg"><path d="M4.594 15l.412.431 6.544 6.525c.145.178.377.26.602.209a.603.603 0 00.45-.45.602.602 0 00-.208-.602L6.88 15.6H24.6a.604.604 0 00.527-.298.605.605 0 000-.604.604.604 0 00-.527-.298H6.881l5.513-5.513a.602.602 0 00.208-.602.603.603 0 00-.45-.45.603.603 0 00-.602.209l-6.544 6.525-.412.431z"/></symbol><symbol viewBox="0 0 30 30" id="arrow-long-right" xmlns="http://www.w3.org/2000/svg"><path d="M22.821 8.393a.601.601 0 00-.44 1.022l4.785 4.985H1.214a.597.597 0 00-.525.298.595.595 0 000 .604c.108.188.31.3.525.298h25.952l-4.785 4.985a.6.6 0 10.867.83L29.407 15l-6.16-6.415a.603.603 0 00-.426-.192z"/></symbol><symbol viewBox="0 0 30 30" id="arrow-right" xmlns="http://www.w3.org/2000/svg"><path d="M25.406 15l-.412-.431-6.544-6.525a.603.603 0 00-.602-.209.603.603 0 00-.45.45.602.602 0 00.208.602L23.12 14.4H5.4a.604.604 0 00-.527.298.605.605 0 000 .604c.11.188.311.3.527.298h17.719l-5.513 5.513a.602.602 0 00-.208.602.603.603 0 00.45.45.602.602 0 00.602-.209l6.544-6.525.412-.431z"/></symbol><symbol viewBox="0 0 30 30" id="arrow-up" xmlns="http://www.w3.org/2000/svg"><path d="M15 4.594l-.431.412-6.525 6.544a.603.603 0 00-.209.602.603.603 0 00.45.45.602.602 0 00.602-.208L14.4 6.88V24.6a.604.604 0 00.298.527.605.605 0 00.604 0c.188-.11.3-.311.298-.527V6.881l5.513 5.513c.145.178.377.26.602.208a.603.603 0 00.45-.45.602.602 0 00-.209-.602l-6.525-6.544L15 4.594z"/></symbol><symbol viewBox="0 0 30 30" id="check" xmlns="http://www.w3.org/2000/svg"><path d="M25.366 6.616L11.25 20.732l-5.366-5.366-1.768 1.768 7.134 7.134L27.134 8.384l-1.768-1.768z"/></symbol><symbol viewBox="0 0 20 26" id="currency" xmlns="http://www.w3.org/2000/svg"><path d="M4.375.875V14H.625v1.875h3.75v1.875H.625v1.875h3.75v5.625H6.25v-5.625h5.625V17.75H6.25v-1.875h5.625c4.13 0 7.5-3.37 7.5-7.5s-3.37-7.5-7.5-7.5h-7.5zM6.25 2.75h5.625A5.608 5.608 0 0117.5 8.375 5.608 5.608 0 0111.875 14H6.25V2.75z"/></symbol><symbol viewBox="0 0 30 30" id="eye" xmlns="http://www.w3.org/2000/svg"><path d="M15 7.2C7 7.2.75 14.606.75 14.606a.599.599 0 000 .788S7 22.8 15 22.8s14.25-7.406 14.25-7.406a.599.599 0 000-.788S23 7.2 15 7.2zm0 1.2c1.577 0 3.084.326 4.481.825A5.99 5.99 0 0115 19.2a5.99 5.99 0 01-6-6 5.96 5.96 0 011.5-3.975c1.402-.502 2.918-.825 4.5-.825zm-6.488 1.706A7.14 7.14 0 007.8 13.2c0 3.97 3.23 7.2 7.2 7.2s7.2-3.23 7.2-7.2a7.23 7.23 0 00-.694-3.094c3.39 1.723 5.827 4.221 6.45 4.894-.975 1.055-6.372 6.6-12.956 6.6S3.019 16.055 2.044 15c.623-.675 3.072-3.171 6.468-4.894zM15 10.2a3 3 0 100 6 3 3 0 000-6z"/></symbol><symbol viewBox="0 0 35 35" id="favorite" xmlns="http://www.w3.org/2000/svg"><path d="M10.5 4.9c-5.018 0-9.1 4.082-9.1 9.1 0 10.333 11.687 15.433 15.662 18.747l.438.372.438-.372C21.913 29.433 33.6 24.333 33.6 14c0-5.018-4.082-9.1-9.1-9.1-2.838 0-5.332 1.348-7 3.39-1.668-2.042-4.162-3.39-7-3.39zm0 1.4c2.685 0 5.031 1.378 6.41 3.456l.59.875.59-.875C19.47 7.678 21.816 6.3 24.5 6.3c4.26 0 7.7 3.44 7.7 7.7 0 9.029-10.084 13.702-14.7 17.347C12.884 27.702 2.8 23.029 2.8 14c0-4.26 3.44-7.7 7.7-7.7z"/></symbol><symbol viewBox="0 0 28 22" id="filters" xmlns="http://www.w3.org/2000/svg"><path d="M14 .2A2.404 2.404 0 0011.687 2H.8a.604.604 0 00-.527.298.606.606 0 000 .604c.11.188.311.3.527.298h10.887A2.404 2.404 0 0014 5c1.11 0 2.044-.771 2.313-1.8H27.2a.603.603 0 00.527-.298.606.606 0 000-.604A.603.603 0 0027.2 2H16.313A2.404 2.404 0 0014 .2zm0 1.2a1.185 1.185 0 011.193 1.256A1.185 1.185 0 0114 3.8a1.185 1.185 0 01-1.193-1.256A1.185 1.185 0 0114 1.4zm8.4 7.2a2.404 2.404 0 00-2.313 1.8H.8a.604.604 0 00-.527.298.606.606 0 000 .604c.11.188.311.3.527.298h19.287a2.404 2.404 0 002.313 1.8c1.11 0 2.044-.771 2.313-1.8H27.2a.603.603 0 00.527-.298.606.606 0 000-.604.604.604 0 00-.527-.298h-2.487A2.404 2.404 0 0022.4 8.6zm0 1.2a1.185 1.185 0 011.193 1.256A1.185 1.185 0 0122.4 12.2a1.185 1.185 0 01-1.193-1.256A1.185 1.185 0 0122.4 9.8zM7.4 17a2.403 2.403 0 00-2.313 1.8H.8a.604.604 0 00-.527.298.606.606 0 000 .604c.11.188.311.3.527.298h4.287A2.404 2.404 0 007.4 21.8c1.11 0 2.044-.771 2.313-1.8H27.2a.603.603 0 00.527-.298.606.606 0 000-.604.604.604 0 00-.527-.298H9.713A2.404 2.404 0 007.4 17zm0 1.2a1.185 1.185 0 011.193 1.256A1.185 1.185 0 017.4 20.6a1.185 1.185 0 01-1.193-1.256A1.185 1.185 0 017.4 18.2z"/></symbol><symbol viewBox="0 0 30 30" id="roll-up" xmlns="http://www.w3.org/2000/svg"><path d="M17.99 3.59c-.027.003-.058.005-.086.01H3c-.987 0-1.8.813-1.8 1.8v19.2c0 .987.813 1.8 1.8 1.8h14.9a.543.543 0 00.194 0H27c.987 0 1.8-.813 1.8-1.8V5.4c0-.987-.813-1.8-1.8-1.8h-8.906c-.036-.005-.068-.01-.103-.01zM3 4.8h14.4v20.4H3a.59.59 0 01-.6-.6V5.4c0-.34.26-.6.6-.6zm15.6 0H27c.34 0 .6.26.6.6v19.2c0 .34-.26.6-.6.6h-8.4V4.8zm-7.202 6.593a.6.6 0 00-.424 1.029l1.954 1.978H5.4a.604.604 0 00-.527.298.606.606 0 000 .604c.11.188.311.3.527.298h7.528l-1.955 1.978a.601.601 0 10.853.844L15.21 15l-3.383-3.422a.606.606 0 00-.428-.185z"/></symbol><symbol viewBox="0 0 30 30" id="rub" xmlns="http://www.w3.org/2000/svg"><path d="M9.375 1.875V15h-3.75v1.875h3.75v1.875h-3.75v1.875h3.75v5.625h1.875v-5.625h5.625V18.75H11.25v-1.875h5.625c4.13 0 7.5-3.37 7.5-7.5s-3.37-7.5-7.5-7.5h-7.5zM11.25 3.75h5.625A5.608 5.608 0 0122.5 9.375 5.608 5.608 0 0116.875 15H11.25V3.75z"/></symbol><symbol viewBox="0 0 30 30" id="search" xmlns="http://www.w3.org/2000/svg"><path d="M12.6 1.8C6.973 1.8 2.4 6.373 2.4 12c0 5.627 4.573 10.2 10.2 10.2 2.227 0 4.284-.717 5.963-1.931l7.893 7.875 1.688-1.688-7.8-7.819A10.154 10.154 0 0022.8 12c0-5.627-4.573-10.2-10.2-10.2zm0 1.2c4.978 0 9 4.022 9 9s-4.022 9-9 9a8.99 8.99 0 01-9-9c0-4.978 4.022-9 9-9z"/></symbol><symbol viewBox="0 0 30 30" id="sort" xmlns="http://www.w3.org/2000/svg"><path d="M0 7.2v1.2h30V7.2H0zm0 3.6V12h24v-1.2H0zm0 3.6v1.2h18v-1.2H0zM0 18v1.2h12V18H0zm0 3.6v1.2h6v-1.2H0z"/></symbol></svg>