<svg width="26" height="26" viewBox="0 0 26 26" fill="none" xmlns="http://www.w3.org/2000/svg">
<path d="M12.7801 0C5.83853 0 0.200195 5.68741 0.200195 12.6895C0.200195 19.6915 5.83853 25.3789 12.7801 25.3789C19.7218 25.3789 25.3601 19.6915 25.3601 12.6895C25.3601 5.68741 19.7218 0 12.7801 0ZM12.7801 1.10343C19.1299 1.10343 24.2662 6.28438 24.2662 12.6895C24.2662 19.0945 19.1299 24.2755 12.7801 24.2755C6.43035 24.2755 1.2941 19.0945 1.2941 12.6895C1.2941 6.28438 6.43035 1.10343 12.7801 1.10343ZM7.31274 8.82745L5.10356 8.8296C5.10356 8.8296 4.9775 8.82098 4.82581 8.84253C4.67411 8.86193 4.44764 8.87055 4.21689 9.13563H4.21476V9.13779C4.00965 9.37485 4.01606 9.65071 4.0417 9.80157C4.06733 9.95243 4.12502 10.0667 4.12502 10.0667V10.0688C4.14639 10.1205 5.74879 14.0817 7.76996 16.2088C9.19503 17.7109 10.7184 18.2066 12.0751 18.2066H12.7801C13.0109 18.2066 13.2181 18.1958 13.4467 18.0751C13.6775 17.9566 13.8741 17.6269 13.8741 17.3683C13.8741 17.0924 13.8805 16.8252 13.9147 16.6743C13.9488 16.5364 13.936 16.5709 13.9488 16.5687C13.9617 16.573 13.9852 16.5773 14.03 16.5989C14.1283 16.6441 14.28 16.7433 14.4467 16.8726C14.78 17.1355 15.1752 17.5148 15.6196 17.8079C16.2542 18.2325 16.9443 18.2066 16.9443 18.2066H19.2175L19.241 18.2045C19.241 18.2045 19.5914 18.1958 19.9482 17.9739C20.1277 17.8639 20.3414 17.6614 20.4119 17.3553C20.4845 17.0515 20.3926 16.7325 20.2174 16.4502C20.1534 16.3489 19.8414 15.892 18.5979 14.7778C18.2775 14.4911 18.0574 14.2886 17.9698 14.1787C17.9399 14.142 17.9378 14.1442 17.9313 14.142C17.9378 14.1248 18.0104 13.9718 18.2027 13.7196C18.4035 13.4567 18.7069 13.0903 19.0979 12.5882C19.5979 11.9459 19.9482 11.3296 20.1683 10.8102C20.2794 10.5494 20.3563 10.3145 20.4033 10.099C20.4503 9.88562 20.4867 9.7089 20.4183 9.45459C20.367 9.26494 20.226 9.09684 20.0893 9.00632C19.9525 8.91796 19.8243 8.88348 19.709 8.86408C19.4782 8.82098 19.2752 8.82745 19.0872 8.82745C18.692 8.82745 16.9314 8.84253 16.7862 8.84253C16.6152 8.84253 16.3439 8.91365 16.2178 8.98693C15.9059 9.1658 15.8076 9.41364 15.8076 9.41364L15.7777 9.46752L15.7606 9.52571C15.7606 9.52571 15.359 10.8339 14.9466 11.5084C14.4616 12.3015 14.1005 12.6162 13.9403 12.7067C13.9253 12.7153 13.9339 12.711 13.9211 12.7175C13.9104 12.6808 13.8933 12.6291 13.8826 12.5364C13.8612 12.3274 13.8741 12.0321 13.8741 11.7455C13.8741 10.9546 13.9339 10.461 13.8676 9.99338C13.8356 9.76062 13.7523 9.49985 13.5621 9.29942C13.372 9.09899 13.1284 8.99986 12.8827 8.94382H12.8806C12.6263 8.88563 12.3528 8.83391 11.6905 8.82745C10.8509 8.81883 10.3018 8.84684 9.81463 9.06451L9.81036 9.06882L9.80608 9.07098C9.6138 9.16149 9.4621 9.26494 9.3275 9.40502C9.26127 9.47399 9.18221 9.52571 9.12666 9.74769C9.10103 9.85976 9.09675 10.0688 9.22067 10.2391C9.34673 10.4093 9.51979 10.461 9.62234 10.474C9.60525 10.4718 9.70353 10.4934 9.78045 10.5322C9.8595 10.571 9.92573 10.627 9.94282 10.6485V10.6507C9.93641 10.6399 10.0091 10.8253 10.0283 10.9955C10.0496 11.1658 10.0454 11.3015 10.0454 11.3015L10.0432 11.3339L10.0475 11.3684C10.0475 11.3684 10.0817 11.7433 10.0625 12.1291C10.0539 12.3231 10.0304 12.5192 9.99837 12.6377C9.99624 12.6442 9.99624 12.642 9.9941 12.6464C9.85736 12.5515 9.54115 12.2153 9.1053 11.489C8.70363 10.8188 8.3276 9.61407 8.3276 9.61407L8.31905 9.58605L8.30837 9.56019C8.30837 9.56019 8.24 9.29296 7.92806 9.07098C7.63749 8.86624 7.36188 8.83607 7.36188 8.83607L7.31274 8.82745ZM7.18455 9.93088C7.2166 9.94165 7.28069 9.96536 7.29351 9.97182L7.28069 9.93303L7.29778 9.97182C7.29778 9.97398 7.29992 9.97398 7.29992 9.97398V9.97613C7.27428 9.95458 7.29778 9.97398 7.29992 9.98044C7.31488 10.0322 7.64818 11.1916 8.16949 12.0623C8.64594 12.8532 8.99634 13.2972 9.37878 13.5623C9.76335 13.8252 10.2783 13.7993 10.5389 13.6614C10.8893 13.4782 10.9855 13.1765 11.0538 12.9265C11.1222 12.6765 11.1457 12.4222 11.1564 12.1808C11.1777 11.7218 11.1414 11.3468 11.1371 11.308C11.1393 11.2886 11.1436 11.1097 11.1158 10.8662C11.088 10.6227 11.0367 10.321 10.8231 10.0171C11.0624 9.98044 11.197 9.92657 11.6798 9.93088C12.2994 9.93734 12.3934 9.9632 12.6349 10.0192C12.7673 10.0494 12.7823 10.0753 12.7695 10.0623C12.7588 10.0494 12.7695 10.0408 12.7844 10.1464C12.8143 10.3619 12.7801 10.9115 12.7801 11.7455C12.7801 11.9804 12.7566 12.3123 12.7951 12.6593C12.8357 13.0063 12.9425 13.4502 13.357 13.7088C13.5942 13.8575 14.0471 13.9093 14.4744 13.6679C14.9017 13.4287 15.3397 12.9696 15.8781 12.086C16.4101 11.2153 16.7285 10.071 16.7627 9.94812C16.7627 9.94812 16.7691 9.94596 16.7733 9.94165C16.784 9.94381 16.7712 9.94381 16.7862 9.94381C16.9891 9.94381 18.7176 9.93088 19.0872 9.93088C19.1898 9.93088 19.2346 9.93734 19.3094 9.9395C19.2795 10.058 19.2368 10.1981 19.162 10.3748C18.9847 10.7951 18.6791 11.3403 18.2369 11.9071C17.8587 12.3964 17.5617 12.7498 17.3353 13.0451C17.1109 13.3425 16.9336 13.5752 16.8588 13.9136C16.784 14.2519 16.9272 14.6312 17.1195 14.8726C17.3118 15.1161 17.551 15.3187 17.8715 15.6032C19.0744 16.6829 19.2731 17.0084 19.2902 17.0385C19.3116 17.073 19.2987 17.0385 19.3051 17.0558C19.2389 17.0773 19.1577 17.101 19.1492 17.1032H16.9314C16.9314 17.1032 16.5255 17.0902 16.2221 16.8877V16.8855H16.22C15.9016 16.6743 15.5149 16.3122 15.1175 16.0019C14.9188 15.8467 14.7159 15.7002 14.4808 15.5924C14.248 15.4868 13.9488 15.4114 13.6369 15.5041C13.184 15.642 12.9318 16.0773 12.8507 16.4222C12.793 16.67 12.8015 16.8855 12.7994 17.101C12.7844 17.1032 12.7994 17.1032 12.7801 17.1032H12.0751C10.9641 17.1032 9.80822 16.7605 8.56048 15.4459C6.93885 13.7369 5.49241 10.433 5.27448 9.93088H7.18455ZM16.7263 9.93519C16.7157 9.93734 16.7434 9.9395 16.7669 9.94165C16.7648 9.94381 16.7669 9.9395 16.7627 9.94165C16.7627 9.93303 16.7392 9.93303 16.7263 9.93519Z" fill="black"/>
</svg>
