<svg width="250" height="20" viewBox="0 0 250 20" fill="none" xmlns="http://www.w3.org/2000/svg">
<path d="M2.3565 5.94424V8.93383H4.92403C6.11986 8.93383 7.10467 9.28554 7.84327 10.0241C8.58188 10.7276 8.96877 11.7124 8.96877 12.9082C8.96877 14.0689 8.58188 15.0185 7.87845 15.7571C7.13984 16.4957 6.19021 16.8474 4.99437 16.8474H0V3.93945H7.91362V5.94424H2.3565ZM2.3565 14.8075H4.57231C5.2054 14.8075 5.6978 14.6316 6.04952 14.3151C6.40124 13.9634 6.5771 13.5061 6.5771 12.9082C6.5771 12.3103 6.40124 11.8531 6.04952 11.4662C5.6978 11.1145 5.17023 10.9386 4.53714 10.9386H2.3565V14.8075Z" fill="white"/>
<path d="M18.5002 12.3806H15.8624V16.8123H13.5059V3.93945H18.5002C19.6961 3.93945 20.6809 4.32634 21.4546 5.10012C22.2284 5.87389 22.6153 6.89387 22.6153 8.12488C22.6153 9.35589 22.2284 10.3759 21.4546 11.1848C20.716 11.9586 19.7312 12.3806 18.5002 12.3806ZM18.1133 5.94424H15.8624V10.3407H18.043C18.7113 10.3407 19.2388 10.1297 19.6257 9.74277C20.0126 9.35589 20.1885 8.79314 20.1885 8.12488C20.1885 7.45662 20.0126 6.92904 19.6257 6.54216C19.274 6.15527 18.7816 5.94424 18.1133 5.94424Z" fill="white"/>
<path d="M32.8857 5.83872L34.785 3.93945C35.8753 4.22083 36.8601 4.78357 37.6691 5.59252C38.9353 6.82353 39.5683 8.40625 39.5332 10.2703C39.5332 12.1696 38.9001 13.7875 37.6339 15.0889C36.4029 16.3902 34.785 17.0233 32.8506 17.0233C30.9161 17.0233 29.3334 16.3902 28.0672 15.0889C26.801 13.7875 26.2031 12.2048 26.2031 10.2703C26.2031 8.40625 26.8362 6.8587 28.1024 5.59252C28.9113 4.78357 29.861 4.22083 30.9865 3.93945L32.8857 5.83872ZM29.861 13.5765C30.6699 14.4558 31.6547 14.913 32.8857 14.913C34.1167 14.913 35.1367 14.4909 35.9105 13.6117C36.7194 12.7324 37.1063 11.642 37.1063 10.3055C37.1063 9.03934 36.7194 7.98419 35.9105 7.14007C35.1015 6.29595 34.0816 5.87389 32.8857 5.87389C31.6547 5.87389 30.6348 6.29595 29.861 7.14007C29.052 7.98419 28.6651 9.03934 28.6651 10.3055C28.6651 11.6069 29.052 12.6972 29.861 13.5765Z" fill="white"/>
<path d="M46.6026 16.8123H44.2461V3.93945H46.6026V9.39106H52.5114V3.93945H54.8328V16.8474H52.5114V11.3958H46.6026V16.8123Z" fill="white"/>
<path d="M62.6055 16.8123H60.249V3.93945H62.6055V9.39106H68.5144V3.93945H70.8357V16.8474H68.5144V11.3958H62.6055V16.8123Z" fill="white"/>
<path d="M83.5325 9.39106L78.6436 16.8123H76.3223V3.93945H78.6788V11.3958L78.5381 13.4006H78.5732C78.9953 12.5565 79.347 11.8882 79.6636 11.3958L84.5173 3.97463H86.8386V16.8826H84.5173V9.39106L84.6579 7.38627H84.6228C84.2007 8.23039 83.849 8.89865 83.5325 9.39106Z" fill="white"/>
<path d="M100.239 3.93945H102.595V14.8075H104.108V19.3798H102.033V16.8474H92.3252V3.93945H94.6817V14.8075H100.239V3.93945Z" fill="white"/>
<path d="M115.715 3.93945H118.247L114.59 10.0945V10.1297L118.458 16.8474H115.821L112.69 11.22H111.002V16.8474H108.646V3.93945H111.002V9.18003H112.655L115.715 3.93945Z" fill="white"/>
<path d="M129.819 9.39106L124.93 16.8123H122.608V3.93945H124.965V11.3958L124.824 13.4006H124.859C125.281 12.5565 125.633 11.8882 125.95 11.3958L130.803 3.97463H133.125V16.8826H130.803V9.39106L130.944 7.38627H130.909C130.487 8.23039 130.135 8.89865 129.819 9.39106Z" fill="white"/>
<path d="M140.862 13.3652C141.284 12.5211 141.636 11.8528 141.953 11.3604L146.806 3.93922H149.128V16.8472H146.806V9.39083L146.947 7.38604H146.912C146.525 8.19499 146.138 8.86325 145.857 9.39083L140.968 16.812H138.646V3.93922H141.003V11.3956L140.862 13.4004V13.3652ZM147.58 1.58272H140.194V0H147.58V1.58272Z" fill="white"/>
<path d="M172.27 3.69336C174.134 3.69336 175.682 4.32645 176.913 5.59263C178.179 6.85881 178.777 8.40636 178.777 10.2705C178.777 12.1697 178.144 13.7876 176.913 15.089C175.647 16.3903 174.099 17.0586 172.27 17.0586C170.617 17.0586 169.175 16.531 168.015 15.4759C166.819 14.4207 166.115 13.0842 165.869 11.4311H163.829V16.8476H161.473V3.93956H163.829V9.39116H165.834C166.01 7.77327 166.713 6.40158 167.909 5.31125C169.14 4.25611 170.582 3.69336 172.27 3.69336ZM169.386 13.5766C170.16 14.4559 171.145 14.9131 172.306 14.9131C173.466 14.9131 174.416 14.4559 175.225 13.5766C176.034 12.6973 176.421 11.607 176.421 10.3056C176.421 9.07462 176.034 8.01947 175.225 7.17535C174.416 6.33123 173.466 5.90917 172.306 5.90917C171.145 5.90917 170.195 6.33123 169.386 7.17535C168.577 8.01947 168.19 9.07462 168.19 10.3056C168.19 11.607 168.577 12.6973 169.386 13.5766Z" fill="white"/>
<path d="M188.203 16.8123H183.525V3.93945H188.133C189.329 3.93945 190.314 4.22083 191.017 4.81874C191.756 5.41666 192.107 6.22561 192.107 7.24559C192.107 7.84351 191.967 8.40625 191.685 8.86348C191.404 9.35589 191.017 9.7076 190.525 9.98898V10.0241C191.193 10.2352 191.72 10.5869 192.072 11.1848C192.424 11.7476 192.6 12.3806 192.6 13.0841C192.6 14.3151 192.178 15.2296 191.333 15.8626C190.525 16.4957 189.469 16.8123 188.203 16.8123ZM189.716 7.52696C189.716 7.06973 189.575 6.68284 189.294 6.3663C189.012 6.08492 188.59 5.94424 188.063 5.94424H185.812V9.18003H188.098C188.59 9.18003 188.977 9.03934 189.258 8.7228C189.575 8.40625 189.716 8.01936 189.716 7.52696ZM189.751 14.2799C190.067 13.9282 190.243 13.5061 190.243 12.9434C190.243 12.4158 190.067 11.9586 189.751 11.6069C189.434 11.2552 188.977 11.0793 188.379 11.0793H185.882V14.8075H188.379C188.942 14.8075 189.399 14.6316 189.751 14.2799Z" fill="white"/>
<path d="M199.704 9.32071H204.03V11.3255H199.704V14.8075H205.367V16.8123H197.348V3.93945H205.05V5.94424H199.669V9.32071H199.704Z" fill="white"/>
<path d="M219.472 3.93947V16.8475H217.115V5.94425H213.703V7.4918C213.703 10.6573 213.316 13.0138 212.508 14.5613C211.734 16.1089 210.432 16.9178 208.674 16.953V14.8075C209.659 14.6668 210.362 14.0337 210.784 12.8731C211.241 11.7124 211.452 9.91865 211.452 7.42146V3.9043H219.472V3.93947Z" fill="white"/>
<path d="M232.168 9.39106L227.279 16.8123H224.958V3.93945H227.315V11.3958L227.174 13.4006H227.209C227.631 12.5565 227.983 11.8882 228.299 11.3958L233.153 3.97463H235.474V16.8826H233.153V9.39106L233.294 7.38627H233.259C232.836 8.23039 232.485 8.89865 232.168 9.39106Z" fill="white"/>
<path d="M245.92 12.3806H243.282V16.8123H240.926V3.93945H245.885C247.081 3.93945 248.066 4.32634 248.839 5.10012C249.613 5.87389 250 6.89387 250 8.12488C250 9.35589 249.613 10.3759 248.839 11.1848C248.136 11.9586 247.151 12.3806 245.92 12.3806ZM245.533 5.94424H243.282V10.3407H245.463C246.131 10.3407 246.659 10.1297 247.046 9.74277C247.433 9.35589 247.608 8.79314 247.608 8.12488C247.608 7.45662 247.433 6.92904 247.046 6.54216C246.694 6.15527 246.166 5.94424 245.533 5.94424Z" fill="white"/>
</svg>
